<?xml version="1.0" encoding="utf-8"?>
<!-- Svg Vector Icons : http://www.onlinewebfonts.com/icon -->
<!DOCTYPE svg PUBLIC "-//W3C//DTD SVG 1.1//EN" "http://www.w3.org/Graphics/SVG/1.1/DTD/svg11.dtd">
<svg version="1.1" xmlns="http://www.w3.org/2000/svg" xmlns:xlink="http://www.w3.org/1999/xlink" x="0px" y="0px" viewBox="0 0 1000 1000" enable-background="new 0 0 1000 1000" xml:space="preserve">
<metadata> Svg Vector Icons : http://www.onlinewebfonts.com/icon </metadata>
<g><path d="M846.5,153.5c-191.4-191.4-501.6-191.4-693,0s-191.4,501.6,0,693c191.4,191.4,501.6,191.4,693,0C1037.8,655.1,1037.8,344.9,846.5,153.5z M436.6,809.7c6.7-5.2,13.3-10.9,19.4-17.1c35.9-35.8,56-81.8,60.4-129.7c-34.3,32.7-86.2,37.3-128.5,14.5c5.6-3.7,11-7.9,16-12.8c7-7,12.8-14.6,17.4-22.9c-42.8,27.3-102.4,20.4-142-19.2c-0.3-0.3-0.7-0.7-1-1c16.6-4.1,32.1-12.1,45.3-24.1c-35.3,5.7-74.1-6-102.4-34.4c-15-15-25.2-32.8-30.6-51.3c87.7,12.2,177.2-11.1,245-70.6c-7.3-4.6-14.1-10.2-20.5-16.5c-44.8-44.8-46.2-114.8-3.2-156.3c22.4-21.6,52.4-31.4,82.2-29.5c14.1-20.8,24.1-43.6,29.9-67.3c13,24.4,16.4,52.1,10.3,77.6c13.8-17.2,24.4-36.1,31.9-56c5.7,26.2,6.7,53.2,2.9,79.3c3.6,3.3,7.2,6.7,10.6,10.2c106.3,106.3,151.8,305.9,11,446.6C547.5,772.4,493.7,799.1,436.6,809.7L436.6,809.7z"/></g>
</svg>