<?xml version="1.0" standalone="no"?>
<!DOCTYPE svg PUBLIC "-//W3C//DTD SVG 20010904//EN"
 "http://www.w3.org/TR/2001/REC-SVG-20010904/DTD/svg10.dtd">
<svg version="1.0" xmlns="http://www.w3.org/2000/svg"
 width="512.000000pt" height="512.000000pt" viewBox="0 0 512.000000 512.000000"
 preserveAspectRatio="xMidYMid meet">
<metadata>
Created by potrace 1.14, written by Peter Selinger 2001-2017
</metadata>
<g transform="translate(0.000000,512.000000) scale(0.100000,-0.100000)"
fill="#000000" stroke="none">
<path d="M2497 4864 c-1 -1 -49 -4 -107 -8 -259 -16 -562 -95 -803 -208 -99
-46 -285 -152 -327 -185 -8 -6 -49 -37 -90 -68 -465 -347 -787 -881 -884
-1465 -122 -745 138 -1518 687 -2038 33 -31 65 -62 71 -68 72 -68 269 -206
401 -280 192 -108 506 -221 690 -248 23 -4 50 -8 60 -10 107 -20 212 -28 365
-28 158 0 243 7 425 38 138 23 383 100 519 163 37 17 69 31 70 31 19 0 366
215 386 239 3 3 27 24 55 46 61 49 162 144 224 209 25 27 54 58 64 69 45 46
184 239 234 325 159 270 280 620 309 892 3 36 8 79 10 95 5 41 5 340 0 392 -2
24 -7 66 -11 95 -101 792 -618 1488 -1345 1811 -99 44 -316 120 -370 131 -14
2 -57 11 -96 20 -100 21 -186 34 -279 41 -74 6 -254 12 -258 9z"/>
</g>
</svg>
